<svg width="32" height="32" viewBox="0 0 32 32" fill="none" xmlns="http://www.w3.org/2000/svg">
  <defs>
    <linearGradient id="g" x1="0" y1="0" x2="32" y2="32" gradientUnits="userSpaceOnUse">
      <stop offset="0" stop-color="#2563eb"/>
      <stop offset="1" stop-color="#1d4ed8"/>
    </linearGradient>
  </defs>
  <path d="M7 4h18a5 5 0 0 1 5 5v10a5 5 0 0 1-5 5H14.2l-5.86 4.69A1 1 0 0 1 6.75 28V24H7a5 5 0 0 1-5-5V9a5 5 0 0 1 5-5Z" fill="url(#g)"/>
  <path d="M16 9.2 17.5 13l3.8 1.5-3.8 1.5L16 19.8 14.5 16 10.7 14.5 14.5 13 16 9.2Z" fill="white"/>
  <circle cx="10.5" cy="19" r="1.1" fill="white" fill-opacity="0.7"/>
  <circle cx="21.5" cy="19" r="1.1" fill="white" fill-opacity="0.5"/>
</svg>
